# xmcd CD database file
#
# Track frame offsets:
#	150
#	17889
#	33549
#	49738
#	65958
#	87225
#	100429
#	117019
#	134333
#	152783
#	168850
#	185142
#	201709
#	218338
#	237408
#	257240
#	284372
#
# Disc length: 4011 seconds
#
# Revision: 0
# Processed by: cddbd v1.4PL0 Copyright (c) Steve Scherf et al.
# Submitted via: CDex 1.40Beta6
#
DISCID=040fa911
DTITLE=Shania Twain - Come On Over
DYEAR=1900
DGENRE=Country
TTITLE0=Man! I Feel Like A Woman!
TTITLE1=I'm Holdin' On To Love
TTITLE2=Love Gets Me Every Time
TTITLE3=Don't Be Stupid
TTITLE4=From This Moment On
TTITLE5=Come On Over 
TTITLE6=When
TTITLE7=Whatever You Do! Don't!
TTITLE8=if You Wanna Touch Her, Ask!
TTITLE9=You're Still The One
TTITLE10=Honey, I'm Home
TTITLE11=That Don't Impress Me Much
TTITLE12=Black Eyes, Blue Tears
TTITLE13=I Won't Leave You Lonely
TTITLE14=Rock This Country
TTITLE15=Youve Got A Way
TTITLE16=Bonus
EXTD=
EXTT0=
EXTT1=
EXTT2=
EXTT3=
EXTT4=
EXTT5=
EXTT6=
EXTT7=
EXTT8=
EXTT9=
EXTT10=
EXTT11=
EXTT12=
EXTT13=
EXTT14=
EXTT15=
EXTT16=
PLAYORDER=
